<?xml version="1.0" encoding="utf-8"?>
<!-- Generator: Adobe Illustrator 24.0.0, SVG Export Plug-In . SVG Version: 6.00 Build 0)  -->
<svg version="1.1" id="Layer_1" focusable="false" xmlns="http://www.w3.org/2000/svg" xmlns:xlink="http://www.w3.org/1999/xlink"
	 x="0px" y="0px" viewBox="0 0 448 512" style="enable-background:new 0 0 448 512;" xml:space="preserve">
<style type="text/css">
	.st0{fill:#FFFFFF;}
</style>
<path class="st0" d="M384,32H64C28.6,32,0,60.7,0,96v320c0,35.4,28.6,64,64,64h320c35.4,0,64-28.6,64-64V96
	C448,60.7,419.4,32,384,32z M128,192c-17.7,0-32-14.3-32-32s14.3-32,32-32s32,14.3,32,32S145.7,192,128,192z M224,288
	c-17.7,0-32-14.3-32-32s14.3-32,32-32s32,14.3,32,32S241.7,288,224,288z M320,384c-17.7,0-32-14.3-32-32s14.3-32,32-32
	s32,14.3,32,32S337.7,384,320,384z"/>
</svg>
