<?xml version="1.0" encoding="utf-8"?>
<!-- Generator: Adobe Illustrator 24.0.0, SVG Export Plug-In . SVG Version: 6.00 Build 0)  -->
<svg version="1.1" id="Layer_1" focusable="false" xmlns="http://www.w3.org/2000/svg" xmlns:xlink="http://www.w3.org/1999/xlink"
	 x="0px" y="0px" viewBox="0 0 448 512" style="enable-background:new 0 0 448 512;" xml:space="preserve">
<style type="text/css">
	.st0{fill:#FFFFFF;}
</style>
<path class="st0" d="M400,448H48c-8.8,0-16,7.2-16,16v32c0,8.8,7.2,16,16,16h352c8.8,0,16-7.2,16-16v-32
	C416,455.2,408.8,448,400,448z M416,160H256v-48h40c4.4,0,8-3.6,8-8V56c0-4.4-3.6-8-8-8h-40V8c0-4.4-3.6-8-8-8h-48c-4.4,0-8,3.6-8,8
	v40h-40c-4.4,0-8,3.6-8,8v48c0,4.4,3.6,8,8,8h40v48H32c-17.7,0-32,14.4-32,32c0,3.2,0.5,6.4,1.5,9.5L74.6,416h298.9l73.1-214.5
	c5.3-16.9-4.1-34.8-21-40.1C422.4,160.5,419.2,160,416,160z"/>
</svg>
