<?xml version="1.0" encoding="utf-8"?>
<!-- Generator: Adobe Illustrator 24.0.0, SVG Export Plug-In . SVG Version: 6.00 Build 0)  -->
<svg version="1.1" id="Layer_1" focusable="false" xmlns="http://www.w3.org/2000/svg" xmlns:xlink="http://www.w3.org/1999/xlink"
	 x="0px" y="0px" viewBox="0 0 320 512" style="enable-background:new 0 0 320 512;" xml:space="preserve">
<style type="text/css">
	.st0{fill:#FFFFFF;}
</style>
<path class="st0" d="M105.1,224H80c-8.8,0-16,7.2-16,16v32c0,8.8,7.2,16,16,16h16v5.5c0,44-4.1,86.6-24,122.5h176
	c-19.9-35.9-24-78.5-24-122.5V288h16c8.8,0,16-7.2,16-16v-32c0-8.8-7.2-16-16-16h-25.1c29.4-18.4,49.1-50.8,49.1-88
	c0-57.4-46.6-104-104-104S56,78.6,56,136C56,173.2,75.7,205.6,105.1,224z M304,448H16c-8.8,0-16,7.2-16,16v32c0,8.8,7.2,16,16,16
	h288c8.8,0,16-7.2,16-16v-32C320,455.2,312.8,448,304,448z"/>
</svg>
