<?xml version="1.0" encoding="utf-8"?>
<!-- Generator: Adobe Illustrator 24.0.0, SVG Export Plug-In . SVG Version: 6.00 Build 0)  -->
<svg version="1.1" id="Layer_1" focusable="false" xmlns="http://www.w3.org/2000/svg" xmlns:xlink="http://www.w3.org/1999/xlink"
	 x="0px" y="0px" viewBox="0 0 512 512" style="enable-background:new 0 0 512 512;" xml:space="preserve">
<style type="text/css">
	.st0{fill:#FFFFFF;}
</style>
<path class="st0" d="M256,112c30.9,0,56-25.1,56-56S286.9,0,256,0s-56,25.1-56,56S225.1,112,256,112z M432,448H80
	c-8.8,0-16,7.2-16,16v32c0,8.8,7.2,16,16,16h352c8.8,0,16-7.2,16-16v-32C448,455.2,440.8,448,432,448z M504.9,184.2l-28.5-15.9
	c-7.4-5-16.9-2.5-22.3,4.7c-10.9,14.6-29.3,21.7-47.2,18.2c-23.1-4.3-38.8-26.2-38.8-49.8c0-7.4-6-13.4-13.4-13.4h-38.8
	c-6,0-11.6,4-12.9,9.9c-5.5,25.9-30.9,42.5-56.9,37.1c-18.6-3.9-33.2-18.5-37.1-37.1c-1.3-5.9-6.8-9.9-12.9-9.9h-38.8
	c-7.4,0-13.4,6-13.4,13.4c0,25.7-19,48.8-44.7,50.5c-16.2,1.1-31.9-6.1-41.5-19.1c-5.3-7.1-14.7-9.4-22.1-4.5l-28.6,16
	c-6.7,4.5-9,13.3-5.4,20.5L104.2,416h303.5l102.6-211.4C513.9,197.4,511.6,188.6,504.9,184.2z"/>
</svg>
