<?xml version="1.0" encoding="utf-8"?>
<!-- Generator: Adobe Illustrator 24.0.0, SVG Export Plug-In . SVG Version: 6.00 Build 0)  -->
<svg version="1.1" id="Layer_1" focusable="false" xmlns="http://www.w3.org/2000/svg" xmlns:xlink="http://www.w3.org/1999/xlink"
	 x="0px" y="0px" viewBox="0 0 384 512" style="enable-background:new 0 0 384 512;" xml:space="preserve">
<style type="text/css">
	.st0{fill:#FFFFFF;}
</style>
<path class="st0" d="M368,32h-56c-8.8,0-16,7.2-16,16v48h-48V48c0-8.8-7.2-16-16-16h-80c-8.8,0-16,7.2-16,16v48H88.1V48
	c0-8.8-7.2-16-16-16H16C7.2,32,0,39.2,0,48v176l64,32c0,48.3-1.5,95-13.2,160h282.4C321.5,351,320,303.7,320,256l64-32V48
	C384,39.2,376.8,32,368,32z M224,320h-64v-64c0-17.7,14.3-32,32-32s32,14.3,32,32V320z M368,448H16c-8.8,0-16,7.2-16,16v32
	c0,8.8,7.2,16,16,16h352c8.8,0,16-7.2,16-16v-32C384,455.2,376.8,448,368,448z"/>
</svg>
