<?xml version="1.0" encoding="utf-8"?>
<!-- Generator: Adobe Illustrator 24.0.0, SVG Export Plug-In . SVG Version: 6.00 Build 0)  -->
<svg version="1.1" id="Layer_1" focusable="false" xmlns="http://www.w3.org/2000/svg" xmlns:xlink="http://www.w3.org/1999/xlink"
	 x="0px" y="0px" viewBox="0 0 448 512" style="enable-background:new 0 0 448 512;" xml:space="preserve">
<path d="M384,0H64C28.6,0,0,28.6,0,64v320c0,35.4,28.6,64,64,64h320c35.4,0,64-28.6,64-64V64C448,28.6,419.4,0,384,0z M128,160
	c-17.7,0-32-14.3-32-32s14.3-32,32-32s32,14.3,32,32S145.7,160,128,160z M320,352c-17.7,0-32-14.3-32-32s14.3-32,32-32
	s32,14.3,32,32S337.7,352,320,352z"/>
</svg>
